<?xml version="1.0" encoding="UTF-8"?>
<svg width="1200pt" height="1200pt" version="1.1" viewBox="0 0 1200 1200" xmlns="http://www.w3.org/2000/svg">
 <path d="m590.89 98.012c-94.879 42.668-231.51 9.4336-342.62 15.746-55.559 3.1562-107.66 18.215-139.56 63.496-31.902 45.281-41.684 115.16-27.875 201.32 13.809 86.16 3.3672 155.56-1.4375 211.74-15.715 183.8 103.32 316.79 234.19 314.92 58.969-0.84375 93.371 24.336 132.1 61.008 38.73 36.668 79.297 84.812 144.14 119.05 88.461 46.703 168.56 48.41 226.69 21.203 58.133-27.207 93.105-83.5 90.973-144.94-2.4688-70.977 7.1094-116 21.93-146.55 14.82-30.547 34.836-47.773 58.371-63.605 23.535-15.836 50.824-29.453 75.43-52.18 24.602-22.727 45.309-55.043 54.531-103.85 22.242-117.7-7.2891-197.27-56.562-257.39-49.273-60.117-115.79-102.36-169.39-154.79-47.031-45.996-92.344-81.246-141.89-98.285-18.578-6.3906-37.695-9.9961-70.66-9.0273s-60.301 8.5195-88.359 22.137zm146.65 22.301c40.855 14.051 82.52 45.375 127.71 89.57 57.293 56.035 122.54 98.012 166.59 151.75 44.043 53.738 69.371 117.62 48.734 226.82-7.9648 42.148-23.441 65.16-43.125 83.344-19.684 18.184-44.781 31.055-70.852 48.594-26.07 17.539-52.883 40.566-71.219 78.363-18.336 37.797-28.262 89.238-25.66 164.09 1.6289 46.844-23.824 88.445-69.336 109.75s-112.27 22.121-192.8-20.398c-57.566-30.391-94.852-74.312-135.79-113.08-40.945-38.766-88.043-72.379-158.76-71.371-104.38 1.4883-210.18-107.63-195.94-274.24 4.5938-53.734 16.219-126.54 2.7695-197.89-14.762-103.91-3.4297-163.89 19.828-196.9 23.258-33.008 60.332-44.668 110.72-47.531 100.78-5.7266 245.59 21.828 314.7-9.707s89.023-28.016 115.45-28.766c26.43-0.75 41.664 2.332 56.984 7.6016zm-141.59 281.71c-109.39 0-198.48 88.359-198.48 196.86 0 108.5 89.09 196.86 198.48 196.86s198.48-88.359 198.48-196.86c0-108.5-89.09-196.86-198.48-196.86zm0 37.496c88.965 0 160.68 71.129 160.68 159.36 0 88.238-71.715 159.36-160.68 159.36-88.965 0-160.68-71.129-160.68-159.36 0-88.238 71.715-159.36 160.68-159.36zm91.266 138.93c-3.7266 41.508-27.398 68.266-52.02 86.09-12.312 8.9141-24.719 15.285-41.164 20.41s-24.016 14.324-22.965 24.629c1.0469 10.289 10.301 17.793 33.414 10.77 23.113-7.0273 37.891-14.574 53.016-25.523 30.254-21.902 62.5-58.691 67.379-113.04 0.9375-10.316-6.7305-19.43-17.645-19.957-10.914-0.52734-19.152 6.9102-20.016 16.629z"/>
</svg>
